# xmcd
# 
# Track frame offsets:
#     150
#     8750
#     20370
#     29635
#     41507
#     51211
#     62303
#     74417
#     86831
#     96573
#     106899
#     115680
#     128471
#     139163
#     150127
#     161320
#     173025
#     186446
#     197479
#     208369
#     220945
#     233996
#     245422
#     258016
#     268934
#     278660
#     291355
#     303422
#     315274
#     326165
# 
# Disc length: 4507
# 
# Revision: 3
# Processed by: cddbd v1.5.2PL0 Copyright (c) Steve Scherf et al.
# Submitted via: fre:ac v1.0.31
# 
DISCID=a811991e
DTITLE=Skeeter Davis - Sketter Davis and Porter Wagoner_Sing Duets, Here's The Answer
DYEAR=2013
DGENRE=Country
TTITLE0=Skeeter Davis and Porter Wagoner - Rock-A-Bye Boogie
TTITLE1=Skeeter Davis and Porter Wagoner - Have I Told You Lately That I Love You
TTITLE2=Skeeter Davis and Porter Wagoner - Above And Beyond
TTITLE3=Skeeter Davis and Porter Wagoner - Heaven Help Me
TTITLE4=Skeeter Davis and Porter Wagoner - Little Bitty Tear
TTITLE5=Skeeter Davis and Porter Wagoner - Sorrow's Tearing Down The House
TTITLE6=Skeeter Davis and Porter Wagoner - Gonna Find Me A Bluebird
TTITLE7=Skeeter Davis and Porter Wagoner - Violet And A Rose
TTITLE8=Skeeter Davis and Porter Wagoner - There's Always One
TTITLE9=Skeeter Davis and Porter Wagoner - We Could
TTITLE10=Skeeter Davis and Porter Wagoner - My Greatest Weakness
TTITLE11=Skeeter Davis and Porter Wagoner - Anymore
TTITLE12=Jim Reeves - He'll Have To Go
TTITLE13=Skeeter Davis - He'll Have To Stay
TTITLE14=Floyd Cramer - Last Date
TTITLE15=Skeeter Davis - My Last Date (With You)
TTITLE16=Ray Peterson - Tell Laura I Love Her
TTITLE17=Skeeter Davis - Tell Tommy I Miss Him
TTITLE18=Hank Locklin - Please Help Me I'm Falling
TTITLE19=Skeeter Davis - I Can't Help You) I'm Falling Too
TTITLE20=Skeeter Davis - I Really Don't Want To Know
TTITLE21=Skeeter Davis - I Really Want You To Know
TTITLE22=Don Gibson - Just One Time
TTITLE23=Skeeter Davis - I Want To See You Too (Just One Time)
TTITLE24=Skeeter Davis - Am I That Easy To Forget
TTITLE25=Skeeter Davis - Your Cheatin' Heart
TTITLE26=Skeeter Davis - Chained To A Memory
TTITLE27=Skeeter Davis - I Forgot More Than You'll Ever Know
TTITLE28=Skeeter Davis - Somebody Loves You
TTITLE29=Skeeter Davis - End Of The World
EXTD=
EXTT0=
EXTT1=
EXTT2=
EXTT3=
EXTT4=
EXTT5=
EXTT6=
EXTT7=
EXTT8=
EXTT9=
EXTT10=
EXTT11=
EXTT12=
EXTT13=
EXTT14=
EXTT15=
EXTT16=
EXTT17=
EXTT18=
EXTT19=
EXTT20=
EXTT21=
EXTT22=
EXTT23=
EXTT24=
EXTT25=
EXTT26=
EXTT27=
EXTT28=
EXTT29=
PLAYORDER=
